<svg xmlns="http://www.w3.org/2000/svg" width="32.445" height="45.997" viewBox="0 0 32.445 45.997"><g transform="translate(-212.583 -168.815)"><g transform="translate(212.583 168.816)"><g transform="translate(0)"><path d="M685.388,358.463a16.13,16.13,0,0,0-2.241.159v-.159H669.023v46h14.124V390.465a16.08,16.08,0,1,0,2.241-32Z" transform="translate(-669.023 -358.463)" fill="#e4001b"/><g transform="translate(3.811 3.686)"><path d="M684.9,361.907a12.318,12.318,0,1,0,12.317,12.317A12.332,12.332,0,0,0,684.9,361.907Zm0,23.992a11.675,11.675,0,1,1,11.674-11.675A11.688,11.688,0,0,1,684.9,385.9Z" transform="translate(-672.584 -361.907)" fill="#fff" stroke="#fff" stroke-width="1"/><path d="M684.59,366.339a7.574,7.574,0,1,0,7.573,7.574A7.582,7.582,0,0,0,684.59,366.339Zm0,14.5a6.931,6.931,0,1,1,6.93-6.931A6.939,6.939,0,0,1,684.59,380.844Z" transform="translate(-672.272 -361.595)" fill="#fff" stroke="#fff" stroke-width="1"/><ellipse cx="2.991" cy="2.991" rx="2.991" ry="2.991" transform="translate(9.326 9.326)" fill="#fff"/></g></g></g></g></svg>